# xmcd
#
# Track frame offsets: 
#        150
#        17169
#        33276
#        52301
#        68834
#        85823
#
# Disc length: 1380 seconds
#
# Revision: 0
# Processed by: cddbd v1.5.2PL0 Copyright (c) Steve Scherf et al.
# Submitted via: ExactAudioCopy v1.1
#
DISCID=4a056206
DTITLE=Harry Marte - I am
DYEAR=2006
DGENRE=Blues
TTITLE0=Driftwood
TTITLE1=Sleepless
TTITLE2=Tell my why
TTITLE3=Dring till you fly
TTITLE4=You are my secret
TTITLE5=Gone
EXTD=
EXTT0=
EXTT1=
EXTT2=
EXTT3=
EXTT4=
EXTT5=
PLAYORDER=
